<svg xmlns="http://www.w3.org/2000/svg" width="198" height="88" viewBox="0 0 198 88"><defs><linearGradient id="a" x1="50%" x2="50%" y1="0%" y2="100%"><stop stop-color="#F7412D" offset="0%"/><stop stop-color="#D42D28" offset="100%"/></linearGradient></defs><g fill="none" fill-rule="evenodd"><path fill="url(#a)" d="M26 0h26.853C56.382 0 59.73.341 62.9 1.023c3.169.683 5.946 1.82 8.33 3.411 2.385 1.592 4.28 3.736 5.685 6.433 1.405 2.696 2.107 6.058 2.107 10.086 0 4.873-1.274 9.015-3.822 12.426-2.548 3.411-6.273 5.572-11.173 6.481L81.667 69H63.34L48.835 41.42H41.29V69H26V0zm14.292 27.873h9.017c1.372 0 2.826-.049 4.361-.146 1.536-.098 2.924-.39 4.165-.877a7.201 7.201 0 0 0 3.088-2.29c.816-1.04 1.225-2.502 1.225-4.386 0-1.755-.36-3.151-1.078-4.19a7.174 7.174 0 0 0-2.745-2.389c-1.11-.552-2.384-.926-3.822-1.12a31.349 31.349 0 0 0-4.214-.293h-9.997v15.69zM85.212 0h22.681c5.493 0 10.71.617 15.654 1.852 4.944 1.234 9.257 3.232 12.94 5.993 3.684 2.762 6.608 6.351 8.772 10.77 2.165 4.418 3.248 9.778 3.248 16.08 0 5.588-1.05 10.51-3.15 14.765-2.1 4.255-4.928 7.829-8.482 10.72-3.554 2.891-7.657 5.084-12.31 6.578-4.653 1.495-9.531 2.242-14.636 2.242H85.212V0zm14.292 55.145h7.938c3.529 0 6.812-.358 9.85-1.072 3.038-.715 5.668-1.9 7.89-3.557 2.22-1.657 3.969-3.834 5.243-6.53 1.274-2.696 1.91-5.994 1.91-9.892 0-3.379-.636-6.319-1.91-8.82-1.274-2.501-2.99-4.564-5.146-6.189-2.156-1.624-4.688-2.842-7.595-3.654-2.908-.812-5.962-1.218-9.164-1.218h-9.016v40.932zM154.632 0h15.289v54.966h28.323V69h-43.612V0zM10.204 69C4.57 69 0 64.457 0 58.853s4.569-10.147 10.204-10.147c5.636 0 10.204 4.543 10.204 10.147S15.84 69 10.204 69zm0-48.706C4.57 20.294 0 15.751 0 10.147S4.569 0 10.204 0c5.636 0 10.204 4.543 10.204 10.147S15.84 20.294 10.204 20.294zm0 24.353C4.57 44.647 0 40.104 0 34.5s4.569-10.147 10.204-10.147c5.636 0 10.204 4.543 10.204 10.147S15.84 44.647 10.204 44.647z"/><text fill="#4A4A4A" font-family="Avenir-Light, Avenir" font-size="12.25" font-weight="300"><tspan x="0" y="83">RESTAURANT.DEVELOPMENTS.LTD</tspan></text></g></svg>